<svg width="41" height="41" viewBox="0 0 41 41" fill="none" xmlns="http://www.w3.org/2000/svg">
<path d="M20.5003 0.810547C9.5415 0.810547 0.658203 9.69385 0.658203 20.6526C0.658203 31.6114 9.5415 40.4947 20.5003 40.4947C31.4591 40.4947 40.3424 31.6114 40.3424 20.6526C40.3424 9.69385 31.4591 0.810547 20.5003 0.810547ZM17.0279 16.6842C17.0373 17.0157 16.9801 17.3457 16.8597 17.6547C16.7394 17.9637 16.5582 18.2454 16.3271 18.4832C16.0959 18.721 15.8195 18.91 15.514 19.039C15.2085 19.1681 14.8803 19.2346 14.5486 19.2346C14.217 19.2346 13.8888 19.1681 13.5833 19.039C13.2778 18.91 13.0014 18.721 12.7702 18.4832C12.5391 18.2454 12.3579 17.9637 12.2376 17.6547C12.1172 17.3457 12.06 17.0157 12.0694 16.6842C12.0876 16.0388 12.3569 15.426 12.8198 14.9759C13.2828 14.5259 13.903 14.2741 14.5486 14.2741C15.1943 14.2741 15.8145 14.5259 16.2775 14.9759C16.7404 15.426 17.0097 16.0388 17.0279 16.6842ZM28.9332 16.6842C28.9425 17.0157 28.8854 17.3457 28.765 17.6547C28.6446 17.9637 28.4635 18.2454 28.2323 18.4832C28.0012 18.721 27.7247 18.91 27.4192 19.039C27.1138 19.1681 26.7855 19.2346 26.4539 19.2346C26.1223 19.2346 25.794 19.1681 25.4886 19.039C25.1831 18.91 24.9066 18.721 24.6755 18.4832C24.4443 18.2454 24.2632 17.9637 24.1428 17.6547C24.0224 17.3457 23.9653 17.0157 23.9746 16.6842C23.9929 16.0388 24.2621 15.426 24.7251 14.9759C25.188 14.5259 25.8082 14.2741 26.4539 14.2741C27.0996 14.2741 27.7198 14.5259 28.1827 14.9759C28.6457 15.426 28.9149 16.0388 28.9332 16.6842ZM11.5713 28.0934C11.5713 27.6987 11.7281 27.3202 12.0072 27.0411C12.2863 26.762 12.6648 26.6052 13.0595 26.6052H27.9411C28.3357 26.6052 28.7143 26.762 28.9933 27.0411C29.2724 27.3202 29.4292 27.6987 29.4292 28.0934C29.4292 28.4881 29.2724 28.8666 28.9933 29.1457C28.7143 29.4248 28.3357 29.5816 27.9411 29.5816H13.0595C12.6648 29.5816 12.2863 29.4248 12.0072 29.1457C11.7281 28.8666 11.5713 28.4881 11.5713 28.0934Z" fill="#FFC500"/>
</svg>
