<svg width="43" height="41" viewBox="0 0 43 41" fill="none" xmlns="http://www.w3.org/2000/svg">
<path d="M35.9216 34.423L30.0484 28.5895C29.6912 28.1728 29.2745 27.5974 29.2745 26.7045C29.2745 26.0203 29.5463 25.3642 30.03 24.8805C30.5138 24.3968 31.1699 24.125 31.854 24.125C32.5286 24.125 33.2033 24.4028 33.6795 24.9187L35.9415 27.1211L38.1638 24.879C38.64 24.4028 39.3146 24.125 39.9892 24.125C40.6734 24.125 41.3295 24.3968 41.8132 24.8805C42.2969 25.3642 42.5687 26.0203 42.5687 26.7045C42.5687 27.3791 42.2909 28.0537 41.8147 28.5299L35.9216 34.423ZM33.0644 35.7723C29.4915 38.8246 24.9455 40.4994 20.2464 40.4947C14.9839 40.4947 9.93702 38.4042 6.21591 34.6831C2.4948 30.962 0.404297 25.9151 0.404297 20.6526C0.404297 15.3902 2.4948 10.3433 6.21591 6.62216C9.93702 2.90105 14.9839 0.810547 20.2464 0.810547C22.8521 0.810547 25.4323 1.32378 27.8396 2.32094C30.247 3.31809 32.4343 4.77965 34.2768 6.62216C36.1194 8.46466 37.5809 10.652 38.5781 13.0594C39.5752 15.4667 40.0885 18.0469 40.0885 20.6526C40.0885 20.8312 40.0885 20.9899 39.9892 21.1487C38.5209 21.1487 37.1121 21.7439 36.0605 22.7757L35.9216 22.9146L35.8026 22.8154C35.2903 22.2864 34.6766 21.8661 33.9981 21.5797C33.3196 21.2933 32.5904 21.1467 31.854 21.1487C30.3805 21.1487 28.9674 21.734 27.9255 22.7759C26.8835 23.8178 26.2982 25.231 26.2982 26.7045C26.2982 28.1529 26.8736 29.5816 27.9253 30.6332L33.0644 35.7723ZM24.2148 15.6921C24.2148 17.2795 25.6037 18.6684 27.1911 18.6684C28.7785 18.6684 30.1674 17.2795 30.1674 15.6921C30.1674 14.1047 28.7785 12.7158 27.1911 12.7158C25.6037 12.7158 24.2148 14.1047 24.2148 15.6921ZM16.278 15.6921C16.278 14.1047 14.889 12.7158 13.3016 12.7158C11.7143 12.7158 10.3253 14.1047 10.3253 15.6921C10.3253 17.2795 11.7143 18.6684 13.3016 18.6684C14.889 18.6684 16.278 17.2795 16.278 15.6921ZM24.0957 26.9624L26.199 24.8591L21.9925 20.6526L19.8892 22.7559L21.9925 24.8591L19.8892 26.9624L21.9925 29.0657L19.8892 31.1689L21.9925 33.2722L26.199 29.0657L24.0957 26.9624Z" fill="#00B915"/>
</svg>
