<svg width="41" height="41" viewBox="0 0 41 41" fill="none" xmlns="http://www.w3.org/2000/svg">
<path d="M7.16205 31.7047C7.16205 29.5816 9.50342 25.6131 11.9837 22.2598C14.4639 25.6131 16.8053 29.5816 16.8053 31.7047C16.8053 32.3378 16.6806 32.9648 16.4383 33.5498C16.196 34.1348 15.8408 34.6663 15.3931 35.1141C14.9454 35.5618 14.4138 35.917 13.8288 36.1593C13.2438 36.4016 12.6169 36.5263 11.9837 36.5263C9.32484 36.5263 7.16205 34.3635 7.16205 31.7047ZM40.6158 20.6526C40.6158 25.9151 38.5253 30.962 34.8042 34.6831C31.0831 38.4042 26.0362 40.4947 20.7737 40.4947C18.9482 40.4947 17.1625 40.2169 15.4759 39.7605C17.0494 39.0821 18.3897 37.9576 19.3312 36.526C20.2727 35.0943 20.7742 33.4182 20.7737 31.7047C20.7737 30.8118 20.5555 29.78 20.1586 28.5895H20.7737C23.254 28.5895 25.3771 29.5816 26.27 31.03L29.0875 28.2125C27.3018 26.0497 24.2461 24.621 20.7737 24.621C19.9602 24.621 19.1665 24.7004 18.4125 24.8591C17.5593 23.3511 16.5077 21.7043 15.1981 19.9185L14.2457 18.6684C15.6545 18.4105 16.8053 17.1406 16.8053 15.6921C16.8053 14.1047 15.4164 12.7158 13.829 12.7158C12.2416 12.7158 10.8527 14.1047 10.8527 15.6921C10.8527 16.0691 10.932 16.4263 11.0709 16.7636L8.7891 19.9185C5.69374 24.125 3.90795 27.5974 3.37222 30.1967C1.82453 27.3592 0.931641 24.1051 0.931641 20.6526C0.931641 15.3902 3.02214 10.3433 6.74325 6.62216C10.4644 2.90105 15.5113 0.810547 20.7737 0.810547C23.3794 0.810547 25.9596 1.32378 28.367 2.32094C30.7743 3.31809 32.9617 4.77965 34.8042 6.62216C36.6467 8.46466 38.1082 10.652 39.1054 13.0594C40.1026 15.4667 40.6158 18.0469 40.6158 20.6526ZM30.6948 15.6921C30.6948 14.1047 29.3058 12.7158 27.7184 12.7158C26.1311 12.7158 24.7421 14.1047 24.7421 15.6921C24.7421 17.2795 26.1311 18.6684 27.7184 18.6684C29.3058 18.6684 30.6948 17.2795 30.6948 15.6921Z" fill="#FF0429"/>
</svg>
