<svg width="37" height="37" viewBox="0 0 37 37" fill="none" xmlns="http://www.w3.org/2000/svg">
<path d="M18.6313 0.793945C20.9764 0.793945 23.2986 1.25585 25.4652 2.15329C27.6318 3.05074 29.6005 4.36614 31.2587 6.02439C32.917 7.68265 34.2324 9.65129 35.1298 11.8179C36.0273 13.9845 36.4892 16.3067 36.4892 18.6518C36.4892 20.9969 36.0273 23.3191 35.1298 25.4857C34.2324 27.6523 32.917 29.621 31.2587 31.2792C29.6005 32.9375 27.6318 34.2529 25.4652 35.1503C23.2986 36.0478 20.9764 36.5097 18.6313 36.5097C13.8951 36.5097 9.35289 34.6282 6.00389 31.2792C2.65489 27.9302 0.773438 23.388 0.773438 18.6518C0.773437 13.9156 2.65489 9.37339 6.00389 6.02439C9.35289 2.67539 13.8951 0.793945 18.6313 0.793945ZM13.4228 17.1637C14.0148 17.1637 14.5826 16.9285 15.0012 16.5099C15.4198 16.0912 15.655 15.5235 15.655 14.9314C15.655 14.3394 15.4198 13.7716 15.0012 13.353C14.5826 12.9344 14.0148 12.6992 13.4228 12.6992C12.8307 12.6992 12.263 12.9344 11.8443 13.353C11.4257 13.7716 11.1905 14.3394 11.1905 14.9314C11.1905 15.5235 11.4257 16.0912 11.8443 16.5099C12.263 16.9285 12.8307 17.1637 13.4228 17.1637ZM23.8399 17.1637C24.4319 17.1637 24.9997 16.9285 25.4183 16.5099C25.8369 16.0912 26.0721 15.5235 26.0721 14.9314C26.0721 14.3394 25.8369 13.7716 25.4183 13.353C24.9997 12.9344 24.4319 12.6992 23.8399 12.6992C23.2478 12.6992 22.6801 12.9344 22.2614 13.353C21.8428 13.7716 21.6076 14.3394 21.6076 14.9314C21.6076 15.5235 21.8428 16.0912 22.2614 16.5099C22.6801 16.9285 23.2478 17.1637 23.8399 17.1637ZM24.1911 27.051C24.314 27.2092 24.4677 27.3409 24.6428 27.4383C24.818 27.5357 25.011 27.5967 25.2103 27.6176C25.4096 27.6386 25.611 27.6191 25.8026 27.5603C25.9942 27.5015 26.1719 27.4046 26.3251 27.2755C26.4783 27.1463 26.6039 26.9876 26.6942 26.8087C26.7846 26.6299 26.8379 26.4346 26.851 26.2346C26.864 26.0347 26.8366 25.8341 26.7702 25.645C26.7039 25.456 26.6001 25.2822 26.465 25.1342C22.5213 20.4614 14.7383 20.4614 10.7977 25.1342C10.6625 25.2822 10.5587 25.456 10.4924 25.645C10.426 25.8341 10.3986 26.0347 10.4116 26.2346C10.4247 26.4346 10.478 26.6299 10.5684 26.8087C10.6587 26.9876 10.7843 27.1463 10.9375 27.2755C11.0907 27.4046 11.2684 27.5015 11.46 27.5603C11.6516 27.6191 11.8531 27.6386 12.0523 27.6176C12.2516 27.5967 12.4446 27.5357 12.6198 27.4383C12.7949 27.3409 12.9486 27.2092 13.0716 27.051C15.8246 23.7889 21.435 23.7889 24.1911 27.051Z" fill="#FF7000"/>
</svg>
