<svg width="37" height="37" viewBox="0 0 37 37" fill="none" xmlns="http://www.w3.org/2000/svg">
<path d="M18.3637 36.5097C16.0186 36.5097 13.6964 36.0478 11.5298 35.1503C9.3632 34.2529 7.39457 32.9375 5.73631 31.2792C4.07805 29.621 2.76265 27.6523 1.86521 25.4857C0.967767 23.3191 0.505859 20.9969 0.505859 18.6518C0.505859 16.3067 0.967767 13.9845 1.86521 11.8179C2.76265 9.65129 4.07805 7.68265 5.73631 6.02439C7.39457 4.36614 9.3632 3.05074 11.5298 2.15329C13.6964 1.25585 16.0186 0.793945 18.3637 0.793945C23.0999 0.793945 27.6421 2.67539 30.9911 6.02439C34.3401 9.37339 36.2216 13.9156 36.2216 18.6518C36.2216 23.388 34.3401 27.9302 30.9911 31.2792C27.6421 34.6282 23.0999 36.5097 18.3637 36.5097ZM13.1552 17.9077C13.7472 17.9077 14.315 17.6726 14.7336 17.2539C15.1522 16.8353 15.3874 16.2675 15.3874 15.6755C15.3874 15.0835 15.1522 14.5157 14.7336 14.0971C14.315 13.6785 13.7472 13.4433 13.1552 13.4433C12.5632 13.4433 11.9954 13.6785 11.5768 14.0971C11.1581 14.5157 10.923 15.0835 10.923 15.6755C10.923 16.2675 11.1581 16.8353 11.5768 17.2539C11.9954 17.6726 12.5632 17.9077 13.1552 17.9077ZM12.8159 23.6133C12.6861 23.4657 12.5284 23.3452 12.3518 23.2588C12.1752 23.1724 11.9832 23.1219 11.787 23.1102C11.5907 23.0984 11.3941 23.1256 11.2085 23.1903C11.0228 23.255 10.8518 23.3558 10.7054 23.4869C10.5589 23.6181 10.4399 23.7769 10.3551 23.9543C10.2704 24.1317 10.2217 24.3241 10.2117 24.5205C10.2018 24.7168 10.2309 24.9132 10.2973 25.0982C10.3637 25.2832 10.466 25.4533 10.5985 25.5985C11.5759 26.6907 12.7727 27.5643 14.1108 28.1623C15.4489 28.7603 16.8981 29.0693 18.3637 29.0689C19.8294 29.0693 21.2786 28.7603 22.6166 28.1623C23.9547 27.5643 25.1516 26.6907 26.1289 25.5985C26.2614 25.4533 26.3638 25.2832 26.4302 25.0982C26.4966 24.9132 26.5256 24.7168 26.5157 24.5205C26.5058 24.3241 26.457 24.1317 26.3723 23.9543C26.2876 23.7769 26.1686 23.6181 26.0221 23.4869C25.8756 23.3558 25.7046 23.255 25.519 23.1903C25.3333 23.1256 25.1367 23.0984 24.9405 23.1102C24.7442 23.1219 24.5523 23.1724 24.3757 23.2588C24.1991 23.3452 24.0413 23.4657 23.9116 23.6133C23.2134 24.3937 22.3583 25.0179 21.4023 25.4451C20.4463 25.8723 19.4109 26.093 18.3637 26.0926C16.1613 26.0926 14.182 25.1372 12.8159 23.6133ZM23.5723 17.9077C24.1643 17.9077 24.7321 17.6726 25.1507 17.2539C25.5693 16.8353 25.8045 16.2675 25.8045 15.6755C25.8045 15.0835 25.5693 14.5157 25.1507 14.0971C24.7321 13.6785 24.1643 13.4433 23.5723 13.4433C22.9802 13.4433 22.4125 13.6785 21.9938 14.0971C21.5752 14.5157 21.34 15.0835 21.34 15.6755C21.34 16.2675 21.5752 16.8353 21.9938 17.2539C22.4125 17.6726 22.9802 17.9077 23.5723 17.9077Z" fill="#B3D200"/>
</svg>
