<svg width="29" height="29" viewBox="0 0 29 29" fill="none" xmlns="http://www.w3.org/2000/svg">
<path d="M7.14599 8.64908C7.14599 7.13324 7.74816 5.67948 8.82002 4.60762C9.89188 3.53576 11.3456 2.93359 12.8615 2.93359C14.3773 2.93359 15.8311 3.53576 16.9029 4.60762C17.9748 5.67948 18.577 7.13324 18.577 8.64908C18.577 10.1649 17.9748 11.6187 16.9029 12.6905C15.8311 13.7624 14.3773 14.3646 12.8615 14.3646C11.3456 14.3646 9.89188 13.7624 8.82002 12.6905C7.74816 11.6187 7.14599 10.1649 7.14599 8.64908ZM2.85938 18.6512C2.85938 17.0608 4.14965 15.7934 5.72998 15.7934H14.6576C13.4942 17.2001 12.8589 18.9691 12.8615 20.7945C12.8615 22.6563 13.5088 24.3667 14.5904 25.7141C14.0255 25.7684 13.4492 25.7955 12.8615 25.7955C10.2109 25.7955 7.74183 25.244 5.91002 24.0766C4.04963 22.8906 2.85938 21.066 2.85938 18.6512ZM27.1502 20.7945C27.1502 22.4998 26.4728 24.1353 25.2669 25.3411C24.0611 26.547 22.4256 27.2244 20.7203 27.2244C19.0149 27.2244 17.3795 26.547 16.1736 25.3411C14.9678 24.1353 14.2903 22.4998 14.2903 20.7945C14.2903 19.0892 14.9678 17.4537 16.1736 16.2478C17.3795 15.042 19.0149 14.3646 20.7203 14.3646C22.4256 14.3646 24.0611 15.042 25.2669 16.2478C26.4728 17.4537 27.1502 19.0892 27.1502 20.7945ZM23.3694 19.157C23.5035 19.0229 23.5789 18.8409 23.5789 18.6512C23.5789 18.4615 23.5035 18.2795 23.3694 18.1454C23.2352 18.0112 23.0533 17.9358 22.8636 17.9358C22.6739 17.9358 22.4919 18.0112 22.3578 18.1454L20.7203 19.7843L19.0828 18.1454C18.9486 18.0112 18.7667 17.9358 18.577 17.9358C18.3872 17.9358 18.2053 18.0112 18.0711 18.1454C17.937 18.2795 17.8616 18.4615 17.8616 18.6512C17.8616 18.8409 17.937 19.0229 18.0711 19.157L19.7101 20.7945L18.0711 22.432C18.0047 22.4984 17.952 22.5773 17.9161 22.664C17.8801 22.7508 17.8616 22.8439 17.8616 22.9378C17.8616 23.0317 17.8801 23.1248 17.9161 23.2115C17.952 23.2983 18.0047 23.3772 18.0711 23.4436C18.1376 23.51 18.2164 23.5627 18.3032 23.5987C18.39 23.6346 18.483 23.6531 18.577 23.6531C18.6709 23.6531 18.7639 23.6346 18.8507 23.5987C18.9375 23.5627 19.0164 23.51 19.0828 23.4436L20.7203 21.8047L22.3578 23.4436C22.4242 23.51 22.503 23.5627 22.5898 23.5987C22.6766 23.6346 22.7696 23.6531 22.8636 23.6531C22.9575 23.6531 23.0505 23.6346 23.1373 23.5987C23.2241 23.5627 23.303 23.51 23.3694 23.4436C23.4358 23.3772 23.4885 23.2983 23.5245 23.2115C23.5604 23.1248 23.5789 23.0317 23.5789 22.9378C23.5789 22.8439 23.5604 22.7508 23.5245 22.664C23.4885 22.5773 23.4358 22.4984 23.3694 22.432L21.7305 20.7945L23.3694 19.157Z" fill="#484848"/>
</svg>
