<svg width="29" height="29" viewBox="0 0 29 29" fill="none" xmlns="http://www.w3.org/2000/svg">
<path d="M25.0073 7.56122C25.0073 6.62055 24.4477 5.76322 23.5903 5.38219L15.2552 1.67903C14.6361 1.40517 13.9335 1.40517 13.3263 1.67903L4.99118 5.38219C4.13386 5.76322 3.57422 6.62055 3.57422 7.56122V13.1576C3.57422 19.7662 8.14661 25.946 14.2908 27.4464C17.0294 26.7795 19.4466 25.184 21.2922 23.0288L17.5772 19.3137C16.4325 20.0702 15.0614 20.4077 13.6964 20.2688C12.3313 20.1299 11.0563 19.5232 10.0875 18.5516C8.97223 17.4347 8.34583 15.9208 8.34583 14.3424C8.34583 12.764 8.97223 11.2501 10.0875 10.1332C11.2044 9.01793 12.7183 8.39152 14.2967 8.39152C15.8751 8.39152 17.389 9.01793 18.5059 10.1332C19.4751 11.1034 20.0801 12.3782 20.219 13.7425C20.3578 15.1068 20.0219 16.4773 19.268 17.6229L22.7211 21.076C24.1619 18.7421 25.0073 15.9916 25.0073 13.1576V7.56122Z" fill="#484848"/>
<path d="M14.287 17.9197C16.2599 17.9197 17.8592 16.3204 17.8592 14.3476C17.8592 12.3747 16.2599 10.7754 14.287 10.7754C12.3142 10.7754 10.7148 12.3747 10.7148 14.3476C10.7148 16.3204 12.3142 17.9197 14.287 17.9197Z" fill="#484848"/>
</svg>
