<svg width="29" height="30" viewBox="0 0 29 30" fill="none" xmlns="http://www.w3.org/2000/svg">
<g clip-path="url(#clip0_728_55827)">
<path d="M14.2875 23.2004C14.2875 24.4863 14.5852 25.689 15.0972 26.7725H7.14317C5.82147 26.7725 4.76172 25.7128 4.76172 24.3911V5.33946C4.76172 4.70786 5.01262 4.10213 5.45923 3.65552C5.90584 3.20891 6.51157 2.95801 7.14317 2.95801H8.3339V11.2931L11.3107 9.507L14.2875 11.2931V2.95801H21.4319C22.0635 2.95801 22.6692 3.20891 23.1158 3.65552C23.5624 4.10213 23.8133 4.70786 23.8133 5.33946V14.9605C23.4204 14.901 23.0275 14.8653 22.6226 14.8653C18.0145 14.8653 14.2875 18.5922 14.2875 23.2004ZM28.3381 24.8674C28.4572 24.8674 28.4572 24.9864 28.3381 25.1055L27.1474 27.1298C27.0283 27.2488 26.9092 27.2488 26.7902 27.2488L25.3613 26.7725C25.0041 27.0107 24.7659 27.1298 24.4087 27.3679L24.1706 28.9158C24.1706 29.0349 24.0515 29.154 23.9324 29.154H21.551C21.4319 29.154 21.3128 29.0349 21.1937 28.9158L20.9556 27.3679C20.5984 27.2488 20.2412 27.0107 20.003 26.7725L18.5741 27.3679C18.4551 27.3679 18.336 27.3679 18.2169 27.2488L17.0262 25.2246C16.9071 25.1055 17.0262 24.9864 17.1453 24.8674L18.4551 23.9148V22.7241L17.1453 21.7715C17.0262 21.6524 17.0262 21.5333 17.0262 21.4143L18.2169 19.39C18.336 19.271 18.4551 19.271 18.5741 19.271L20.003 19.8663C20.3602 19.6282 20.5984 19.5091 20.9556 19.271L21.1937 17.723C21.1937 17.6039 21.3128 17.4849 21.551 17.4849H23.9324C24.0515 17.4849 24.1706 17.6039 24.1706 17.723L24.4087 19.271C24.7659 19.39 25.1231 19.6282 25.4804 19.8663L26.9092 19.271C27.0283 19.271 27.2664 19.271 27.2664 19.39L28.4572 21.4143C28.5762 21.5333 28.4572 21.6524 28.3381 21.7715L27.0283 22.7241V23.9148L28.3381 24.8674ZM24.4087 23.2004C24.4087 22.2478 23.5752 21.4143 22.6226 21.4143C21.67 21.4143 20.8365 22.2478 20.8365 23.2004C20.8365 24.1529 21.67 24.9864 22.6226 24.9864C23.5752 24.9864 24.4087 24.1529 24.4087 23.2004Z" fill="#484848"/>
</g>
<defs>
<clipPath id="clip0_728_55827">
<rect width="28.5774" height="28.5774" fill="white" transform="translate(0 0.577148)"/>
</clipPath>
</defs>
</svg>
