<svg width="110" height="110" viewBox="0 0 110 110" fill="none" xmlns="http://www.w3.org/2000/svg">
<path d="M54.9996 9.4248C30.0489 9.4248 9.63477 29.839 9.63477 54.7896C9.63477 79.7403 30.0489 100.154 54.9996 100.154C79.9502 100.154 100.364 79.7403 100.364 54.7896C100.364 29.839 79.9502 9.4248 54.9996 9.4248ZM54.9996 91.0815C34.9937 91.0815 18.7077 74.7955 18.7077 54.7896C18.7077 34.7837 34.9937 18.4978 54.9996 18.4978C75.0055 18.4978 91.2914 34.7837 91.2914 54.7896C91.2914 74.7955 75.0055 91.0815 54.9996 91.0815ZM75.822 34.7384L45.9266 64.6338L34.1771 52.9297L27.7807 59.3261L45.9266 77.472L82.2185 41.1802L75.822 34.7384Z" fill="white"/>
</svg>
