<svg width="29" height="29" viewBox="0 0 29 29" fill="none" xmlns="http://www.w3.org/2000/svg">
<path d="M13.0993 2.38086C11.5203 2.38086 10.006 3.00812 8.8895 4.12464C7.77297 5.24116 7.14572 6.75549 7.14572 8.33449C7.14572 9.91349 7.77297 11.4278 8.8895 12.5443C10.006 13.6609 11.5203 14.2881 13.0993 14.2881C14.6784 14.2881 16.1927 13.6609 17.3092 12.5443C18.4257 11.4278 19.053 9.91349 19.053 8.33449C19.053 6.75549 18.4257 5.24116 17.3092 4.12464C16.1927 3.00812 14.6784 2.38086 13.0993 2.38086ZM13.0993 15.4788C13.8035 15.4804 14.4877 15.5281 15.1522 15.6217C15.3756 15.653 15.5856 15.747 15.7576 15.893C15.9297 16.0389 16.0567 16.2307 16.124 16.4461C16.1912 16.6614 16.1959 16.8914 16.1375 17.1094C16.0791 17.3273 15.9599 17.5241 15.794 17.6769C14.814 18.5747 14.0636 19.6943 13.6057 20.942C13.1478 22.1897 12.9958 23.5289 13.1625 24.8475C13.1835 25.0169 13.1678 25.1889 13.1166 25.3517C13.0653 25.5146 12.9796 25.6645 12.8654 25.7913C12.7511 25.9181 12.6108 26.0189 12.4542 26.0868C12.2975 26.1546 12.1281 26.188 11.9574 26.1847C9.56408 26.137 7.32552 25.9275 5.65374 25.4155C4.81785 25.1595 4.02959 24.7999 3.43184 24.27C2.79957 23.7103 2.38281 22.9566 2.38281 22.0278C2.38281 21.0907 2.80909 20.2144 3.38779 19.4809C3.976 18.7367 4.78927 18.052 5.74304 17.4686C7.65178 16.3064 10.2476 15.4788 13.0993 15.4788ZM25.259 16.7101C25.8171 17.2683 26.1306 18.0253 26.1306 18.8147C26.1306 19.604 25.8171 20.361 25.259 20.9193L21.1891 24.9892C20.916 25.2622 20.5617 25.4394 20.1794 25.494L17.43 25.887C17.2468 25.9133 17.0599 25.8966 16.8843 25.8381C16.7087 25.7796 16.5491 25.6809 16.4182 25.55C16.2874 25.419 16.1889 25.2594 16.1305 25.0837C16.0722 24.908 16.0556 24.7211 16.0821 24.5379L16.4751 21.7897C16.5295 21.407 16.7067 21.0522 16.9799 20.7788L21.0498 16.7089C21.6081 16.1508 22.3651 15.8373 23.1544 15.8373C23.9438 15.8373 24.7008 16.1508 25.259 16.7089V16.7101Z" fill="#484848"/>
</svg>
