<svg width="29" height="29" viewBox="0 0 29 29" fill="none" xmlns="http://www.w3.org/2000/svg">
<path d="M16.9504 22.6242C17.9804 22.6242 18.5245 23.8435 17.8375 24.6103C17.3908 25.1093 16.8439 25.5085 16.2324 25.7818C15.621 26.055 14.9588 26.1963 14.2891 26.1964C13.6194 26.1963 12.9572 26.055 12.3458 25.7818C11.7344 25.5085 11.1875 25.1093 10.7407 24.6103C10.0835 23.8768 10.5526 22.7302 11.4957 22.6325L11.6266 22.6254L16.9504 22.6242ZM14.2891 2.38184C15.9061 2.38184 17.2731 3.45706 17.7125 4.93118L17.7672 5.1348L17.7768 5.186C19.0896 5.92629 20.2083 6.96716 21.0412 8.2233C21.874 9.47943 22.3974 10.9151 22.5682 12.4125L22.6016 12.7543L22.6242 13.0984V16.5884L22.6492 16.7503C22.8122 17.6277 23.2978 18.4122 24.0102 18.9496L24.2091 19.0889L24.402 19.2068C25.426 19.7867 25.0688 21.3096 23.953 21.4263L23.8149 21.4335H4.7633C3.53924 21.4335 3.11176 19.8093 4.17627 19.2068C4.62998 18.95 5.02198 18.5971 5.32478 18.1727C5.62757 17.7484 5.83381 17.2629 5.92902 16.7503L5.95403 16.5801L5.95522 13.0436C6.02782 11.4884 6.48052 9.97463 7.27369 8.6349C8.06686 7.29516 9.17633 6.17026 10.505 5.35865L10.8003 5.18481L10.8122 5.1336C10.9802 4.42135 11.3628 3.77786 11.9084 3.29018C12.454 2.80249 13.1363 2.49415 13.8628 2.40684L14.0795 2.3866L14.2891 2.38184Z" fill="#484848"/>
</svg>
