<svg width="29" height="29" viewBox="0 0 29 29" fill="none" xmlns="http://www.w3.org/2000/svg">
<g clip-path="url(#clip0_728_55815)">
<path d="M20.9577 21.0018H19.0525V19.0967H20.9577V21.0018ZM15.2422 21.0018H17.1473V19.0967H15.2422V21.0018ZM24.768 21.0018H22.8628V19.0967H24.768V21.0018Z" fill="#484848"/>
<path fill-rule="evenodd" clip-rule="evenodd" d="M5.71549 11.4759V6.71299C5.71549 5.83733 5.88796 4.97024 6.22306 4.16123C6.55816 3.35222 7.04933 2.61714 7.66852 1.99795C8.28771 1.37877 9.02279 0.8876 9.83179 0.552498C10.6408 0.217396 11.5079 0.0449219 12.3836 0.0449219C13.2592 0.0449219 14.1263 0.217396 14.9353 0.552498C15.7443 0.8876 16.4794 1.37877 17.0986 1.99795C17.7178 2.61714 18.2089 3.35222 18.544 4.16123C18.8791 4.97024 19.0516 5.83733 19.0516 6.71299V11.4759H21.9094C22.6673 11.4759 23.3942 11.777 23.9301 12.3129C24.466 12.8488 24.7671 13.5757 24.7671 14.3336V15.3815C25.8438 15.6001 26.8118 16.1842 27.5071 17.0349C28.2024 17.8856 28.5822 18.9505 28.5822 20.0491C28.5822 21.1478 28.2024 22.2127 27.5071 23.0633C26.8118 23.914 25.8438 24.4981 24.7671 24.7168V25.7646C24.7671 26.5225 24.466 27.2494 23.9301 27.7853C23.3942 28.3213 22.6673 28.6224 21.9094 28.6224H2.85774C2.09982 28.6224 1.37294 28.3213 0.837014 27.7853C0.301083 27.2494 0 26.5225 0 25.7646L0 14.3336C0 13.5757 0.301083 12.8488 0.837014 12.3129C1.37294 11.777 2.09982 11.4759 2.85774 11.4759H5.71549ZM7.62065 6.71299C7.62065 5.44979 8.12245 4.23833 9.01567 3.34511C9.90889 2.45189 11.1204 1.95008 12.3836 1.95008C13.6468 1.95008 14.8582 2.45189 15.7514 3.34511C16.6447 4.23833 17.1465 5.44979 17.1465 6.71299V11.4759H7.62065V6.71299ZM16.1939 17.1914C15.436 17.1914 14.7091 17.4925 14.1731 18.0284C13.6372 18.5643 13.3361 19.2912 13.3361 20.0491C13.3361 20.807 13.6372 21.5339 14.1731 22.0699C14.7091 22.6058 15.436 22.9069 16.1939 22.9069H23.8145C24.5724 22.9069 25.2993 22.6058 25.8353 22.0699C26.3712 21.5339 26.6723 20.807 26.6723 20.0491C26.6723 19.2912 26.3712 18.5643 25.8353 18.0284C25.2993 17.4925 24.5724 17.1914 23.8145 17.1914H16.1939Z" fill="#484848"/>
</g>
<defs>
<clipPath id="clip0_728_55815">
<rect width="28.5774" height="28.5774" fill="white" transform="translate(0 0.0449219)"/>
</clipPath>
</defs>
</svg>
