<svg width="17" height="18" viewBox="0 0 17 18" fill="none" xmlns="http://www.w3.org/2000/svg">
<path fill-rule="evenodd" clip-rule="evenodd" d="M0.452461 2.26341C0.340695 2.13292 0.268683 1.97311 0.244962 1.80294C0.22124 1.63277 0.246803 1.45936 0.318621 1.30327C0.390438 1.14718 0.505499 1.01496 0.650168 0.922263C0.794837 0.829568 0.963048 0.780291 1.13487 0.780273H12.2366C12.7624 0.780273 13.283 0.883832 13.7688 1.08504C14.2545 1.28624 14.6959 1.58115 15.0676 1.95292C15.4394 2.3247 15.7343 2.76606 15.9355 3.25181C16.1367 3.73756 16.2403 4.25818 16.2403 4.78395C16.2403 5.30972 16.1367 5.83034 15.9355 6.31609C15.7343 6.80184 15.4394 7.2432 15.0676 7.61498C14.6959 7.98675 14.2545 8.28166 13.7688 8.48287C13.283 8.68407 12.7624 8.78763 12.2366 8.78763H1.13487C0.963048 8.78761 0.794837 8.73834 0.650168 8.64564C0.505499 8.55295 0.390438 8.42072 0.318621 8.26463C0.246803 8.10854 0.22124 7.93514 0.244962 7.76496C0.268683 7.59479 0.340695 7.43499 0.452461 7.30449L1.1233 6.52155C1.53801 6.03777 1.76597 5.4216 1.76597 4.7844C1.76597 4.1472 1.53801 3.53102 1.1233 3.04724L0.452461 2.26341ZM0.225586 13.681C0.225586 12.6192 0.647401 11.6008 1.39824 10.85C2.14907 10.0992 3.16742 9.67734 4.22926 9.67734H15.331C15.5028 9.67735 15.671 9.72663 15.8157 9.81932C15.9604 9.91202 16.0754 10.0442 16.1473 10.2003C16.2191 10.3564 16.2446 10.5298 16.2209 10.7C16.1972 10.8702 16.1252 11.03 16.0134 11.1605L15.3417 11.9434C14.927 12.4272 14.699 13.0434 14.699 13.6806C14.699 14.3178 14.927 14.9339 15.3417 15.4177L16.0134 16.2007C16.1255 16.3311 16.1977 16.491 16.2216 16.6613C16.2455 16.8317 16.22 17.0053 16.1481 17.1615C16.0763 17.3178 15.9611 17.4501 15.8162 17.5429C15.6714 17.6356 15.503 17.6848 15.331 17.6847H4.22926C3.16742 17.6847 2.14907 17.2629 1.39824 16.512C0.647401 15.7612 0.225586 14.7429 0.225586 13.681Z" fill="white"/>
</svg>
