<svg width="29" height="29" viewBox="0 0 29 29" fill="none" xmlns="http://www.w3.org/2000/svg">
<path d="M4.22754 6.13818L14.7325 3.07227L25.2269 6.13818V12.4252C25.2269 19.033 20.9979 24.3161 14.729 26.4049C8.45834 24.3167 4.22754 19.0318 4.22754 12.4222V6.13818Z" stroke="#636363" stroke-width="2.33327" stroke-linejoin="round"/>
<path d="M14.7271 14.1554C16.3379 14.1554 17.6437 12.8496 17.6437 11.2388C17.6437 9.62806 16.3379 8.32227 14.7271 8.32227C13.1163 8.32227 11.8105 9.62806 11.8105 11.2388C11.8105 12.8496 13.1163 14.1554 14.7271 14.1554Z" stroke="#636363" stroke-width="2.33327" stroke-linecap="round" stroke-linejoin="round"/>
<path d="M19.3946 18.8218C19.3946 17.5842 18.9029 16.3972 18.0278 15.5221C17.1526 14.6469 15.9657 14.1553 14.7281 14.1553C13.4904 14.1553 12.3035 14.6469 11.4283 15.5221C10.5532 16.3972 10.0615 17.5842 10.0615 18.8218" stroke="#636363" stroke-width="2.33327" stroke-linecap="round" stroke-linejoin="round"/>
</svg>
