<svg width="13" height="17" viewBox="0 0 13 17" fill="none" xmlns="http://www.w3.org/2000/svg">
<path d="M6.15982 8.05925C5.59856 8.05925 5.06029 7.83629 4.66342 7.43942C4.26655 7.04255 4.04359 6.50428 4.04359 5.94302C4.04359 5.38176 4.26655 4.84349 4.66342 4.44662C5.06029 4.04975 5.59856 3.82679 6.15982 3.82679C6.72108 3.82679 7.25935 4.04975 7.65622 4.44662C8.05309 4.84349 8.27605 5.38176 8.27605 5.94302C8.27605 6.22093 8.22131 6.49612 8.11496 6.75287C8.00861 7.00962 7.85273 7.24291 7.65622 7.43942C7.45971 7.63593 7.22642 7.79181 6.96966 7.89816C6.71291 8.00451 6.43773 8.05925 6.15982 8.05925ZM6.15982 0.0175781C4.58829 0.0175781 3.08113 0.641864 1.9699 1.7531C0.858661 2.86434 0.234375 4.3715 0.234375 5.94302C0.234375 10.3871 6.15982 16.9474 6.15982 16.9474C6.15982 16.9474 12.0853 10.3871 12.0853 5.94302C12.0853 4.3715 11.461 2.86434 10.3497 1.7531C9.2385 0.641864 7.73134 0.0175781 6.15982 0.0175781Z" fill="#FF0000"/>
</svg>
