<svg width="30" height="30" viewBox="0 0 30 30" fill="none" xmlns="http://www.w3.org/2000/svg">
<path d="M20.6485 27.2999C19.6512 27.2999 18.8036 26.9508 18.1055 26.2528C17.4075 25.5547 17.0584 24.7071 17.0584 23.7098C17.0584 23.5902 17.0884 23.3109 17.1482 22.8721L8.74149 17.9657C8.42238 18.2649 8.0534 18.4995 7.63456 18.6694C7.21572 18.8393 6.76696 18.9239 6.28829 18.9231C5.29105 18.9231 4.4434 18.5741 3.74534 17.876C3.04727 17.1779 2.69824 16.3303 2.69824 15.333C2.69824 14.3358 3.04727 13.4882 3.74534 12.7901C4.4434 12.092 5.29105 11.743 6.28829 11.743C6.76696 11.743 7.21572 11.828 7.63456 11.9979C8.0534 12.1678 8.42238 12.402 8.74149 12.7003L17.1482 7.79394C17.1083 7.65432 17.0836 7.5199 17.074 7.39066C17.0644 7.26141 17.0592 7.11661 17.0584 6.95626C17.0584 5.95902 17.4075 5.11137 18.1055 4.41331C18.8036 3.71524 19.6512 3.36621 20.6485 3.36621C21.6457 3.36621 22.4934 3.71524 23.1914 4.41331C23.8895 5.11137 24.2385 5.95902 24.2385 6.95626C24.2385 7.9535 23.8895 8.80115 23.1914 9.49921C22.4934 10.1973 21.6457 10.5463 20.6485 10.5463C20.1698 10.5463 19.7211 10.4613 19.3022 10.2914C18.8834 10.1215 18.5144 9.88733 18.1953 9.58896L9.78859 14.4954C9.82848 14.635 9.85361 14.7698 9.86398 14.8998C9.87435 15.0299 9.87914 15.1743 9.87834 15.333C9.87754 15.4918 9.87275 15.6366 9.86398 15.7674C9.8552 15.8983 9.83007 16.0327 9.78859 16.1707L18.1953 21.0771C18.5144 20.7779 18.8834 20.5438 19.3022 20.3747C19.7211 20.2055 20.1698 20.1206 20.6485 20.1198C21.6457 20.1198 22.4934 20.4688 23.1914 21.1669C23.8895 21.8649 24.2385 22.7126 24.2385 23.7098C24.2385 24.7071 23.8895 25.5547 23.1914 26.2528C22.4934 26.9508 21.6457 27.2999 20.6485 27.2999Z" fill="#B51144"/>
</svg>
