<svg width="29" height="29" viewBox="0 0 29 29" fill="none" xmlns="http://www.w3.org/2000/svg">
<g clip-path="url(#clip0_728_33486)">
<path d="M4.00564 10.3648C4.00552 9.34964 4.25774 8.35034 4.73962 7.4568C5.22151 6.56327 5.91794 5.80352 6.76628 5.24591C7.61462 4.68829 8.58826 4.35029 9.59964 4.26231C10.611 4.17432 11.6284 4.33911 12.5603 4.74185C13.4922 5.1446 14.3093 5.77266 14.9383 6.56956C15.5672 7.36646 15.9882 8.3072 16.1634 9.30716C16.3386 10.3071 16.2625 11.335 15.9419 12.2982C15.6213 13.2615 15.0663 14.1299 14.3268 14.8255C15.721 15.5023 16.9315 16.5053 17.8558 17.7494C18.78 18.9935 19.3907 20.442 19.6362 21.9723C19.6632 22.1425 19.6564 22.3165 19.6162 22.4841C19.576 22.6518 19.5031 22.8099 19.4018 22.9494C19.3005 23.0889 19.1727 23.2071 19.0257 23.2972C18.8787 23.3873 18.7154 23.4476 18.5451 23.4746C18.3748 23.5016 18.2009 23.4948 18.0332 23.4546C17.8656 23.4144 17.7075 23.3415 17.568 23.2402C17.4285 23.1389 17.3103 23.0111 17.2202 22.8641C17.13 22.7171 17.0698 22.5538 17.0428 22.3835C16.7803 20.7391 15.9402 19.2421 14.6733 18.1614C13.4064 17.0807 11.7957 16.487 10.1305 16.487C8.46524 16.487 6.85455 17.0807 5.58765 18.1614C4.32075 19.2421 3.48063 20.7391 3.21816 22.3835C3.19105 22.5538 3.13065 22.7171 3.04043 22.864C2.95022 23.011 2.83194 23.1387 2.69235 23.2399C2.55277 23.3412 2.39461 23.4139 2.2269 23.454C2.0592 23.4941 1.88524 23.5008 1.71496 23.4737C1.54467 23.4466 1.38139 23.3862 1.23444 23.296C1.0875 23.2058 0.959758 23.0875 0.858522 22.9479C0.757286 22.8083 0.684534 22.6502 0.644422 22.4825C0.604309 22.3148 0.59762 22.1408 0.624737 21.9705C0.869332 20.4404 1.47975 18.9919 2.40411 17.7483C3.32847 16.5046 4.53944 15.5025 5.93409 14.8272C5.32511 14.2544 4.83984 13.563 4.50819 12.7955C4.17653 12.0281 4.0055 11.2009 4.00564 10.3648ZM19.7552 7.73991C20.7719 7.74062 21.7666 8.03646 22.6185 8.59152C23.4703 9.14658 24.1428 9.93699 24.5541 10.8668C24.9655 11.7966 25.0981 12.8259 24.9358 13.8296C24.7736 14.8333 24.3234 15.7683 23.6401 16.5212C24.7058 17.0491 25.6528 17.7888 26.423 18.6951C27.1933 19.6013 27.7707 20.6551 28.12 21.792C28.1893 22.0126 28.1991 22.2477 28.1482 22.4733C28.0974 22.6989 27.9878 22.907 27.8305 23.0766C27.6732 23.2461 27.4739 23.371 27.2527 23.4386C27.0316 23.5062 26.7964 23.5141 26.5712 23.4615C26.3461 23.4094 26.1387 23.2988 25.97 23.1409C25.8013 22.9829 25.6773 22.7832 25.6105 22.562C25.2964 21.5476 24.7247 20.632 23.9512 19.9045C23.1777 19.177 22.2288 18.6625 21.1972 18.4111C20.9106 18.3419 20.6556 18.1783 20.4734 17.9465C20.2912 17.7148 20.1923 17.4284 20.1927 17.1336V16.5177C20.1925 16.2733 20.2606 16.0338 20.3892 15.826C20.5178 15.6182 20.7019 15.4505 20.9207 15.3417C21.4512 15.0788 21.8772 14.6442 22.1296 14.1086C22.382 13.573 22.4458 12.9678 22.3108 12.3913C22.1758 11.8148 21.8499 11.3008 21.3859 10.933C20.922 10.5651 20.3473 10.3649 19.7552 10.3648C19.4071 10.3648 19.0733 10.2266 18.8271 9.98043C18.581 9.73429 18.4427 9.40046 18.4427 9.05238C18.4427 8.70429 18.581 8.37046 18.8271 8.12432C19.0733 7.87819 19.4071 7.73991 19.7552 7.73991ZM10.1305 6.86494C9.66439 6.8544 9.2009 6.93708 8.76721 7.10813C8.33353 7.27918 7.93838 7.53515 7.60499 7.86102C7.27159 8.18688 7.00665 8.57607 6.82573 9.00573C6.64481 9.43539 6.55156 9.89687 6.55144 10.3631C6.55132 10.8293 6.64435 11.2908 6.82505 11.7205C7.00576 12.1503 7.2705 12.5396 7.60373 12.8656C7.93697 13.1917 8.33198 13.4478 8.76558 13.6191C9.19918 13.7904 9.66263 13.8733 10.1287 13.863C11.0432 13.8428 11.9134 13.4654 12.553 12.8116C13.1927 12.1577 13.551 11.2795 13.5512 10.3648C13.5515 9.45014 13.1936 8.57171 12.5543 7.91759C11.9149 7.26346 11.0449 6.88562 10.1305 6.86494Z" fill="#636363"/>
</g>
<defs>
<clipPath id="clip0_728_33486">
<rect width="27.9992" height="27.9992" fill="white" transform="translate(0.505859 0.740234)"/>
</clipPath>
</defs>
</svg>
