<svg width="17" height="17" viewBox="0 0 17 17" fill="none" xmlns="http://www.w3.org/2000/svg">
<path d="M14.7411 6.57124H10.7587V2.58885C10.7587 2.06075 10.5489 1.55428 10.1755 1.18086C9.80208 0.807442 9.29561 0.597656 8.76751 0.597656C8.23941 0.597656 7.73295 0.807442 7.35952 1.18086C6.9861 1.55428 6.77632 2.06075 6.77632 2.58885L6.847 6.57124H2.79393C2.26583 6.57124 1.75936 6.78102 1.38594 7.15445C1.01252 7.52787 0.802734 8.03433 0.802734 8.56243C0.802734 9.09053 1.01252 9.597 1.38594 9.97042C1.75936 10.3438 2.26583 10.5536 2.79393 10.5536L6.847 10.4829L6.77632 14.536C6.77632 15.0641 6.9861 15.5706 7.35952 15.944C7.73295 16.3174 8.23941 16.5272 8.76751 16.5272C9.29561 16.5272 9.80208 16.3174 10.1755 15.944C10.5489 15.5706 10.7587 15.0641 10.7587 14.536V10.4829L14.7411 10.5536C15.2692 10.5536 15.7757 10.3438 16.1491 9.97042C16.5225 9.597 16.7323 9.09053 16.7323 8.56243C16.7323 8.03433 16.5225 7.52787 16.1491 7.15445C15.7757 6.78102 15.2692 6.57124 14.7411 6.57124Z" fill="white"/>
</svg>
