<svg width="19" height="20" viewBox="0 0 19 20" fill="none" xmlns="http://www.w3.org/2000/svg">
<path d="M10.8649 1.68348L16.0484 4.73982L16.1221 4.7882L16.1935 4.8481L16.2749 4.90493C16.5629 5.12068 16.8003 5.39668 16.9706 5.71368C17.1409 6.03068 17.24 6.38103 17.2609 6.74027L17.2647 6.89693V12.4905C17.2647 13.3928 16.771 14.2229 16.0184 14.6353L10.7934 17.9389C10.0409 18.3521 9.13012 18.3521 8.33608 17.9143L3.19483 14.6606C2.80549 14.4473 2.48054 14.1334 2.25388 13.7517C2.02722 13.37 1.90717 12.9344 1.90625 12.4905V6.89616C1.90625 6.04683 2.34397 5.26201 3.03971 4.81892L8.37678 1.67196C9.14471 1.24807 10.077 1.24807 10.8649 1.68348ZM9.5855 5.96159C9.38183 5.96159 9.18651 6.0425 9.04249 6.18651C8.89848 6.33053 8.81757 6.52585 8.81757 6.72952V12.8729C8.81757 13.0766 8.89848 13.2719 9.04249 13.4159C9.18651 13.5599 9.38183 13.6408 9.5855 13.6408C9.78917 13.6408 9.98449 13.5599 10.1285 13.4159C10.2725 13.2719 10.3534 13.0766 10.3534 12.8729V6.72952C10.3534 6.52585 10.2725 6.33053 10.1285 6.18651C9.98449 6.0425 9.78917 5.96159 9.5855 5.96159Z" fill="#414141"/>
</svg>
