<svg width="19" height="19" viewBox="0 0 19 19" fill="none" xmlns="http://www.w3.org/2000/svg">
<g clip-path="url(#clip0_728_33475)">
<path d="M14.3855 17.9628C14.1827 17.9628 13.9809 17.9005 13.8072 17.7766L9.72382 14.8481L5.6404 17.7766C5.47122 17.8983 5.26791 17.9634 5.05949 17.9627C4.85108 17.962 4.64822 17.8954 4.47988 17.7725C4.31133 17.6504 4.18561 17.4782 4.12062 17.2805C4.05564 17.0828 4.05471 16.8695 4.11797 16.6713L5.6409 11.7561L1.59414 8.90449C1.42642 8.78071 1.30187 8.60734 1.23809 8.4089C1.17432 8.21046 1.17455 7.99698 1.23875 7.79868C1.30359 7.60093 1.42887 7.42853 1.59692 7.30578C1.76497 7.18304 1.9673 7.11613 2.1754 7.11451L7.18743 7.10698L8.78315 2.3138C8.849 2.11635 8.97531 1.94461 9.14418 1.82292C9.31304 1.70123 9.51592 1.63574 9.72407 1.63574C9.93221 1.63574 10.1351 1.70123 10.304 1.82292C10.4728 1.94461 10.5991 2.11635 10.665 2.3138L12.2336 7.10698L17.2712 7.11451C17.4796 7.11569 17.6823 7.1825 17.8506 7.30545C18.0188 7.42841 18.144 7.60125 18.2084 7.79943C18.2729 7.99761 18.2732 8.21105 18.2094 8.40942C18.1456 8.6078 18.0209 8.78102 17.853 8.90449L13.8062 11.7561L15.3292 16.6713C15.3925 16.8695 15.3916 17.0827 15.3267 17.2804C15.2618 17.4781 15.1362 17.6504 14.9677 17.7725C14.7989 17.8963 14.5949 17.9629 14.3855 17.9628Z" fill="#FFAC33"/>
</g>
<defs>
<clipPath id="clip0_728_33475">
<rect width="18.0704" height="18.0704" fill="white" transform="translate(0.689453 0.581055)"/>
</clipPath>
</defs>
</svg>
