<svg width="25" height="24" viewBox="0 0 25 24" fill="none" xmlns="http://www.w3.org/2000/svg">
<path d="M3.86866 4.30262C3.86866 3.25836 4.28349 2.25687 5.02189 1.51847C5.76029 0.780065 6.76178 0.365234 7.80604 0.365234H20.9307C21.9749 0.365234 22.9764 0.780065 23.7148 1.51847C24.4532 2.25687 24.8681 3.25836 24.8681 4.30262V13.0524C24.8681 14.0966 24.4532 15.0981 23.7148 15.8365C22.9764 16.5749 21.9749 16.9898 20.9307 16.9898H15.4105C14.8855 15.8383 13.769 15.0911 12.6175 14.8706V13.4899C12.6175 12.7937 12.8941 12.126 13.3864 11.6338C13.8786 11.1415 14.5463 10.8649 15.2425 10.8649H19.6173C20.3135 10.8649 20.9812 11.1415 21.4734 11.6338C21.9657 12.126 22.2423 12.7937 22.2423 13.4899V14.8023C22.5141 14.5987 22.7348 14.3345 22.8868 14.0308C23.0388 13.727 23.118 13.392 23.1181 13.0524V4.30262C23.1181 3.72248 22.8876 3.16609 22.4774 2.75587C22.0672 2.34565 21.5108 2.11518 20.9307 2.11518H7.80604C7.2259 2.11518 6.66952 2.34565 6.25929 2.75587C5.84907 3.16609 5.61861 3.72248 5.61861 4.30262V4.57736C4.98541 4.78233 4.39311 5.09684 3.86866 5.50659V4.30262ZM19.6173 12.6149H15.2425C15.0104 12.6149 14.7878 12.7071 14.6238 12.8712C14.4597 13.0352 14.3675 13.2578 14.3675 13.4899V15.2398H20.4923V13.4899C20.4923 13.2578 20.4001 13.0352 20.236 12.8712C20.0719 12.7071 19.8494 12.6149 19.6173 12.6149ZM13.8556 16.9898C14.0515 17.2127 14.2008 17.4725 14.295 17.7539C14.3892 18.0353 14.4264 18.3327 14.4042 18.6286C14.2861 20.4433 13.601 21.8485 12.3017 22.7655C11.0478 23.6501 9.34687 23.9896 7.36768 23.9896C5.40074 23.9896 3.73128 23.6536 2.49757 22.7768C1.22186 21.8695 0.548126 20.4853 0.382756 18.7082C0.240135 17.1805 1.5491 16.1148 2.88081 16.1148H11.9097C12.0007 16.1148 12.092 16.1197 12.1835 16.1297C12.8214 16.1997 13.4348 16.5059 13.8547 16.9898M2.88168 17.8647C2.36982 17.8647 2.09683 18.241 2.12483 18.5472C2.25608 19.9498 2.74869 20.8081 3.51079 21.3506C4.31489 21.922 5.55386 22.2396 7.36768 22.2396C9.19288 22.2396 10.4677 21.9176 11.2928 21.3358C12.0715 20.7863 12.5659 19.9209 12.6578 18.5157C12.677 18.2243 12.4102 17.8647 11.9097 17.8647H2.88168ZM20.4923 6.92755C20.4923 7.73975 20.1697 8.51869 19.5953 9.093C19.021 9.66731 18.2421 9.98996 17.4299 9.98996C16.6177 9.98996 15.8388 9.66731 15.2644 9.093C14.6901 8.51869 14.3675 7.73975 14.3675 6.92755C14.3675 6.11534 14.6901 5.33641 15.2644 4.76209C15.8388 4.18778 16.6177 3.86513 17.4299 3.86513C18.2421 3.86513 19.021 4.18778 19.5953 4.76209C20.1697 5.33641 20.4923 6.11534 20.4923 6.92755ZM18.7424 6.92755C18.7424 6.57946 18.6041 6.24563 18.3579 5.9995C18.1118 5.75336 17.778 5.61508 17.4299 5.61508C17.0818 5.61508 16.748 5.75336 16.5018 5.9995C16.2557 6.24563 16.1174 6.57946 16.1174 6.92755C16.1174 7.27563 16.2557 7.60946 16.5018 7.8556C16.748 8.10173 17.0818 8.24001 17.4299 8.24001C17.778 8.24001 18.1118 8.10173 18.3579 7.8556C18.6041 7.60946 18.7424 7.27563 18.7424 6.92755ZM11.7426 9.98996C11.7426 11.1502 11.2816 12.263 10.4612 13.0835C9.64074 13.9039 8.52797 14.3648 7.36768 14.3648C6.20739 14.3648 5.09463 13.9039 4.27418 13.0835C3.45373 12.263 2.99281 11.1502 2.99281 9.98996C2.99281 8.82967 3.45373 7.7169 4.27418 6.89646C5.09463 6.07601 6.20739 5.61508 7.36768 5.61508C8.52797 5.61508 9.64074 6.07601 10.4612 6.89646C11.2816 7.7169 11.7426 8.82967 11.7426 9.98996ZM9.99261 9.98996C9.99261 9.29379 9.71605 8.62613 9.22378 8.13386C8.73151 7.64159 8.06385 7.36503 7.36768 7.36503C6.67151 7.36503 6.00385 7.64159 5.51158 8.13386C5.01931 8.62613 4.74276 9.29379 4.74276 9.98996C4.74276 10.6861 5.01931 11.3538 5.51158 11.8461C6.00385 12.3383 6.67151 12.6149 7.36768 12.6149C8.06385 12.6149 8.73151 12.3383 9.22378 11.8461C9.71605 11.3538 9.99261 10.6861 9.99261 9.98996Z" fill="#636363"/>
</svg>
